<svg 
  width="30" 
  height="30" 
  viewBox="0 0 30 30" 
  fill="none" 
  xmlns="http://www.w3.org/2000/svg">
  <rect width="30" height="30" rx="15" fill="#1ED760"/>
  <path d="M7.68261 20.5671C9.01322 22.0811 11.3977 24.4362 11.4988 24.5377C11.8119 24.8457 12.215 25 12.6167 25C13.045 25 13.4699 24.8262 13.7881 24.4832C14.407 23.8143 14.3834 22.7571 13.737 22.1182C13.7135 22.0939 11.335 19.7455 10.0834 18.3182C9.49143 17.6439 9.19356 16.7782 9.24635 15.8848C9.30243 14.938 9.74464 14.0494 10.4932 13.3828C11.4758 12.5064 13.4165 12.3116 14.6299 13.4355C15.3527 14.1032 16.2286 15.0867 16.2367 15.0967C16.8444 15.776 17.8676 15.8203 18.5266 15.1964C19.1844 14.5714 19.2292 13.5126 18.6231 12.8326C18.5826 12.7869 17.633 11.7207 16.7921 10.9433C14.4873 8.80904 10.7113 8.76672 8.37508 10.8508C6.96053 12.1116 6.12197 13.8283 6.01224 15.6821C5.90545 17.4821 6.50015 19.218 7.68261 20.5671ZM17.4779 20.6862C18.9776 20.6862 20.4752 20.1743 21.625 19.1484C23.039 17.8878 23.8776 16.1723 23.9882 14.3175C24.0929 12.5182 23.5006 10.7824 22.3162 9.43404C20.987 7.91886 18.6022 5.56313 18.5016 5.46349C17.8552 4.82438 16.8307 4.84991 16.2116 5.51724C15.5941 6.18546 15.6161 7.24403 16.2629 7.88225C16.2873 7.90618 18.664 10.2544 19.9165 11.6805C20.5085 12.3576 20.8068 13.2214 20.754 14.1139C20.6974 15.0614 20.2552 15.9501 19.5075 16.6173C18.5238 17.4957 16.5838 17.6876 15.3696 16.5659C14.6477 15.896 13.7709 14.9132 13.7621 14.9035C13.1568 14.2228 12.1312 14.1792 11.4735 14.8051C10.8151 15.4294 10.7712 16.4889 11.3769 17.1689C11.4171 17.2121 12.3681 18.2778 13.2081 19.0562C14.3782 20.1409 15.929 20.6862 17.4779 20.6862Z" fill="white"/>
</svg>
